<svg width="20" height="20" viewBox="0 0 20 20" fill="none" xmlns="http://www.w3.org/2000/svg">
<rect width="20" height="20" rx="10" fill="url(#paint0_linear_167_793)"/>
<path d="M8.91876 13.8461C8.75768 13.846 8.6016 13.7901 8.47703 13.688L6.39391 11.9815C6.10907 11.7341 6.07265 11.305 6.31172 11.0131C6.55078 10.7212 6.97864 10.6723 7.27738 10.9028L8.89086 12.2233L13.5407 7.94084C13.7154 7.73302 13.9949 7.64553 14.257 7.7166C14.5191 7.78767 14.7161 8.00437 14.7619 8.27201C14.8078 8.53965 14.6941 8.80956 14.4706 8.96379L9.39304 13.6601C9.26456 13.7805 9.09483 13.8471 8.91876 13.8461Z" fill="white"/>
<defs>
<linearGradient id="paint0_linear_167_793" x1="0" y1="10" x2="20" y2="10" gradientUnits="userSpaceOnUse">
<stop offset="0.215" stop-color="#FF9929"/>
<stop offset="0.735" stop-color="#F25430"/>
</linearGradient>
</defs>
</svg>
