<svg width="276" height="387" viewBox="0 0 276 387" fill="none" xmlns="http://www.w3.org/2000/svg">
<rect x="0.916944" y="0.916944" width="274.166" height="384.199" rx="44.9302" fill="#FDFBE6"/>
<rect x="0.916944" y="0.916944" width="274.166" height="384.199" rx="44.9302" stroke="black" stroke-width="1.83389"/>
<rect x="19.2558" y="19.2558" width="237.488" height="347.522" rx="26.5914" fill="url(#paint0_linear_205_1677)"/>
<rect x="19.2558" y="19.2558" width="237.488" height="347.522" rx="26.5914" stroke="black" stroke-width="1.83389"/>
<circle cx="63.7276" cy="64.1866" r="17.1652" fill="#FDFBE6" stroke="#46202D" stroke-width="1.43043"/>
<mask id="path-4-inside-1_205_1677" fill="white">
<path fill-rule="evenodd" clip-rule="evenodd" d="M206.313 46.5376C214.01 48.7145 219.651 55.7917 219.651 64.1863C219.651 72.5808 214.01 79.658 206.313 81.835C207.903 82.2846 209.58 82.5251 211.314 82.5251C221.442 82.5251 229.653 74.3146 229.653 64.1863C229.653 54.058 221.442 45.8474 211.314 45.8474C209.58 45.8474 207.903 46.088 206.313 46.5376Z"/>
</mask>
<path fill-rule="evenodd" clip-rule="evenodd" d="M206.313 46.5376C214.01 48.7145 219.651 55.7917 219.651 64.1863C219.651 72.5808 214.01 79.658 206.313 81.835C207.903 82.2846 209.58 82.5251 211.314 82.5251C221.442 82.5251 229.653 74.3146 229.653 64.1863C229.653 54.058 221.442 45.8474 211.314 45.8474C209.58 45.8474 207.903 46.088 206.313 46.5376Z" fill="#FDFBE6"/>
<path d="M206.313 46.5376L206.086 45.7355L203.25 46.5376L206.086 47.3397L206.313 46.5376ZM206.313 81.835L206.086 81.0328L203.25 81.835L206.086 82.6371L206.313 81.835ZM206.086 47.3397C213.434 49.4178 218.817 56.1745 218.817 64.1863H220.484C220.484 55.409 214.587 48.0112 206.54 45.7355L206.086 47.3397ZM218.817 64.1863C218.817 72.198 213.434 78.9547 206.086 81.0328L206.54 82.6371C214.587 80.3613 220.484 72.9636 220.484 64.1863H218.817ZM211.314 81.6916C209.658 81.6916 208.056 81.4618 206.54 81.0328L206.086 82.6371C207.749 83.1074 209.503 83.3587 211.314 83.3587V81.6916ZM228.819 64.1863C228.819 73.8542 220.982 81.6916 211.314 81.6916V83.3587C221.903 83.3587 230.486 74.7749 230.486 64.1863H228.819ZM211.314 46.681C220.982 46.681 228.819 54.5184 228.819 64.1863H230.486C230.486 53.5976 221.903 45.0138 211.314 45.0138V46.681ZM206.54 47.3397C208.056 46.9108 209.658 46.681 211.314 46.681V45.0138C209.503 45.0138 207.749 45.2652 206.086 45.7355L206.54 47.3397Z" fill="#46202D" mask="url(#path-4-inside-1_205_1677)"/>
<circle cx="125.121" cy="68.7708" r="3.2093" fill="#FDFBE6" stroke="#46202D" stroke-width="0.916944"/>
<circle cx="137.959" cy="56.8506" r="3.2093" fill="#FDFBE6" stroke="#46202D" stroke-width="0.916944"/>
<circle cx="150.795" cy="68.7708" r="3.2093" fill="#FDFBE6" stroke="#46202D" stroke-width="0.916944"/>
<path d="M144.633 213.189L137.999 271.915L131.366 213.189H144.633Z" fill="#FFD490" stroke="#46202D" stroke-width="0.916944"/>
<path d="M131.366 172.844L138 114.118L144.633 172.844H131.366Z" fill="#FFD490" stroke="#46202D" stroke-width="0.916944"/>
<path d="M121.724 201.014L72.6568 194.392L121.724 187.77V201.014Z" fill="#FFD490" stroke="#46202D" stroke-width="0.916944"/>
<path d="M122.172 191.847L92.1591 152.469L131.538 182.482L122.172 191.847Z" fill="#FFD490" stroke="#46202D" stroke-width="0.916944"/>
<path d="M129.704 208.385L90.3252 238.398L120.338 199.02L129.704 208.385Z" fill="#FFD490" stroke="#46202D" stroke-width="0.916944"/>
<path d="M154.437 201.014L203.504 194.392L154.437 187.77V201.014Z" fill="#FFD490" stroke="#46202D" stroke-width="0.916944"/>
<path d="M153.988 191.847L184.001 152.469L144.622 182.482L153.988 191.847Z" fill="#FFD490" stroke="#46202D" stroke-width="0.916944"/>
<path d="M146.455 208.385L185.834 238.398L155.821 199.02L146.455 208.385Z" fill="#FFD490" stroke="#46202D" stroke-width="0.916944"/>
<circle cx="137.999" cy="193.475" r="22.4651" fill="#FDFBE6" stroke="#46202D" stroke-width="0.916944"/>
<circle cx="17.8804" cy="17.8804" r="17.1652" transform="matrix(-1 0 0 1 229.653 304.426)" fill="#FDFBE6" stroke="#46202D" stroke-width="1.43043"/>
<circle cx="3.66777" cy="3.66777" r="3.2093" transform="matrix(1 1.74846e-07 1.74846e-07 -1 121.036 320.013)" fill="#FDFBE6" stroke="#46202D" stroke-width="0.916944"/>
<circle cx="3.66777" cy="3.66777" r="3.2093" transform="matrix(1 1.74846e-07 1.74846e-07 -1 133.874 331.934)" fill="#FDFBE6" stroke="#46202D" stroke-width="0.916944"/>
<circle cx="3.66777" cy="3.66777" r="3.2093" transform="matrix(1 1.74846e-07 1.74846e-07 -1 146.711 320.013)" fill="#FDFBE6" stroke="#46202D" stroke-width="0.916944"/>
<mask id="path-22-inside-2_205_1677" fill="white">
<path fill-rule="evenodd" clip-rule="evenodd" d="M69.1874 339.496C61.4899 337.319 55.8496 330.242 55.8496 321.847C55.8496 313.453 61.4897 306.376 69.1872 304.199C67.5974 303.749 65.9198 303.508 64.186 303.508C54.0578 303.508 45.8472 311.719 45.8472 321.847C45.8472 331.975 54.0578 340.186 64.186 340.186C65.9199 340.186 67.5975 339.945 69.1874 339.496Z"/>
</mask>
<path fill-rule="evenodd" clip-rule="evenodd" d="M69.1874 339.496C61.4899 337.319 55.8496 330.242 55.8496 321.847C55.8496 313.453 61.4897 306.376 69.1872 304.199C67.5974 303.749 65.9198 303.508 64.186 303.508C54.0578 303.508 45.8472 311.719 45.8472 321.847C45.8472 331.975 54.0578 340.186 64.186 340.186C65.9199 340.186 67.5975 339.945 69.1874 339.496Z" fill="#FDFBE6"/>
<path d="M69.1874 339.496L69.4142 338.694L72.2504 339.496L69.4142 340.298L69.1874 339.496ZM69.1872 304.199L69.414 303.396L72.2502 304.198L69.414 305.001L69.1872 304.199ZM56.6832 321.847C56.6832 329.859 62.0661 336.616 69.4142 338.694L68.9605 340.298C60.9136 338.022 55.0161 330.624 55.0161 321.847H56.6832ZM69.414 305.001C62.066 307.079 56.6832 313.835 56.6832 321.847H55.0161C55.0161 313.07 60.9134 305.672 68.9603 303.396L69.414 305.001ZM68.9603 305.001C67.4436 304.572 65.8423 304.342 64.186 304.342V302.675C65.9972 302.675 67.7511 302.926 69.414 303.396L68.9603 305.001ZM64.186 304.342C54.5181 304.342 46.6808 312.179 46.6808 321.847H45.0136C45.0136 311.259 53.5974 302.675 64.186 302.675V304.342ZM46.6808 321.847C46.6808 331.515 54.5181 339.352 64.186 339.352V341.02C53.5974 341.02 45.0136 332.436 45.0136 321.847H46.6808ZM64.186 339.352C65.8424 339.352 67.4437 339.123 68.9605 338.694L69.4142 340.298C67.7513 340.768 65.9973 341.02 64.186 341.02V339.352Z" fill="#46202D" mask="url(#path-22-inside-2_205_1677)"/>
<defs>
<linearGradient id="paint0_linear_205_1677" x1="18.3389" y1="193.017" x2="257.661" y2="193.017" gradientUnits="userSpaceOnUse">
<stop offset="0.215" stop-color="#FF9929"/>
<stop offset="0.735" stop-color="#F25430"/>
</linearGradient>
</defs>
</svg>
