<svg width="15" height="14" viewBox="0 0 15 14" fill="none" xmlns="http://www.w3.org/2000/svg">
<path fill-rule="evenodd" clip-rule="evenodd" d="M11.8783 2.02196L12.4063 2.54993C14.864 5.00763 14.864 8.99235 12.4063 11.45L11.8783 11.978C9.42058 14.4357 5.43586 14.4357 2.97816 11.978L2.45019 11.45C-0.00750799 8.99235 -0.00750833 5.00763 2.45019 2.54993L2.97816 2.02196C5.43586 -0.435742 9.42058 -0.435742 11.8783 2.02196ZM7.42822 7.7071L8.96029 9.23916C9.15555 9.43442 9.47213 9.43442 9.66739 9.23916C9.86266 9.0439 9.86266 8.72732 9.66739 8.53205L8.13533 6.99999L9.66739 5.46792C9.86266 5.27266 9.86266 4.95608 9.66739 4.76082C9.47213 4.56556 9.15555 4.56556 8.96029 4.76082L7.42822 6.29288L5.89616 4.76082C5.7009 4.56556 5.38431 4.56556 5.18905 4.76082C4.99379 4.95608 4.99379 5.27266 5.18905 5.46792L6.72112 6.99999L5.18905 8.53205C4.99379 8.72732 4.99379 9.0439 5.18905 9.23916C5.38431 9.43442 5.7009 9.43442 5.89616 9.23916L7.42822 7.7071Z" fill="black" fill-opacity="0.2"/>
</svg>
