<svg width="23" height="23" viewBox="0 0 23 23" fill="none" xmlns="http://www.w3.org/2000/svg">
<rect width="23" height="23" rx="6.24286" fill="url(#paint0_linear_78_12)"/>
<ellipse cx="11.4816" cy="11.5279" rx="7.18218" ry="12.4131" transform="rotate(44.1689 11.4816 11.5279)" fill="white"/>
<path d="M11.3428 7.61572C11.3781 7.52037 11.513 7.52037 11.5482 7.61572L12.5373 10.2887C12.5484 10.3187 12.5721 10.3424 12.6021 10.3535L15.2751 11.3426C15.3704 11.3778 15.3704 11.5127 15.2751 11.548L12.6021 12.5371C12.5721 12.5482 12.5484 12.5718 12.5373 12.6018L11.5482 15.2748C11.513 15.3702 11.3781 15.3702 11.3428 15.2748L10.3537 12.6018C10.3426 12.5718 10.319 12.5482 10.289 12.5371L7.61597 11.548C7.52061 11.5127 7.52061 11.3778 7.61597 11.3426L10.289 10.3535C10.319 10.3424 10.3426 10.3187 10.3537 10.2887L11.3428 7.61572Z" fill="url(#paint1_radial_78_12)"/>
<circle cx="18.0709" cy="4.92859" r="0.985714" fill="url(#paint2_linear_78_12)"/>
<defs>
<linearGradient id="paint0_linear_78_12" x1="0" y1="11.5" x2="23" y2="11.5" gradientUnits="userSpaceOnUse">
<stop offset="0.215" stop-color="#FF9929"/>
<stop offset="0.735" stop-color="#F25430"/>
</linearGradient>
<radialGradient id="paint1_radial_78_12" cx="0" cy="0" r="1" gradientUnits="userSpaceOnUse" gradientTransform="translate(11.4455 11.4453) rotate(90.0107) scale(7.63217)">
<stop stop-color="#FF9929"/>
<stop offset="0.98" stop-color="#F25430"/>
</radialGradient>
<linearGradient id="paint2_linear_78_12" x1="17.0852" y1="4.92859" x2="19.0566" y2="4.92859" gradientUnits="userSpaceOnUse">
<stop offset="0.215" stop-color="#FF9929"/>
<stop offset="0.735" stop-color="#F25430"/>
</linearGradient>
</defs>
</svg>
